<?xml version="1.0" standalone="no"?>
<!DOCTYPE svg PUBLIC "-//W3C//DTD SVG 20010904//EN"
 "http://www.w3.org/TR/2001/REC-SVG-20010904/DTD/svg10.dtd">
<svg version="1.0" xmlns="http://www.w3.org/2000/svg"
 width="120.000000pt" height="120.000000pt" viewBox="0 0 120.000000 120.000000"
 preserveAspectRatio="xMidYMid meet">
<metadata>
Created by potrace 1.16, written by Peter Selinger 2001-2019
</metadata>
<g transform="translate(0.000000,120.000000) scale(0.100000,-0.100000)"
fill="#000000" stroke="none">
<path d="M462 1140 c-89 -12 -169 -32 -278 -71 -69 -26 -85 -35 -90 -56 -4
-13 -4 -82 -1 -151 4 -97 11 -148 31 -216 69 -232 234 -446 433 -563 l43 -25
43 25 c199 117 363 330 433 563 22 73 27 115 31 229 2 77 0 146 -5 153 -12 17
-182 77 -273 96 -96 20 -273 27 -367 16z m353 -85 c38 -8 105 -27 147 -41 l78
-26 0 -89 c0 -151 -50 -342 -93 -358 -57 -21 -67 -22 -67 -7 0 53 -59 98 -99
77 -11 -6 -26 -21 -32 -33 -10 -18 -9 -20 6 -14 16 6 17 -5 10 -151 -8 -179 1
-160 -112 -239 l-53 -37 -52 37 c-114 79 -105 60 -113 239 -7 146 -6 157 10
151 15 -6 16 -4 6 14 -6 12 -21 27 -32 33 -40 21 -99 -24 -99 -77 0 -15 -10
-14 -67 7 -43 16 -93 207 -93 358 l0 90 93 30 c82 26 140 39 252 55 52 8 237
-4 310 -19z"/>
<path d="M757 864 l5 -61 -65 -24 c-36 -13 -66 -28 -68 -34 -1 -5 12 -20 31
-32 25 -17 47 -23 91 -23 40 0 59 -4 59 -12 0 -7 6 -4 12 6 6 10 26 33 46 50
19 17 42 47 49 66 8 19 22 43 31 53 19 22 20 22 -68 -8 -40 -14 -75 -25 -77
-25 -2 0 -14 24 -28 53 l-24 52 6 -61z"/>
<path d="M258 845 c12 -15 22 -34 22 -41 0 -22 62 -86 97 -100 51 -22 125 -18
163 9 19 12 34 26 34 31 1 7 -209 88 -313 121 l-24 7 21 -27z"/>
</g>
</svg>
